<?xml version="1.0" standalone="no"?>
<!DOCTYPE svg PUBLIC "-//W3C//DTD SVG 20010904//EN"
 "http://www.w3.org/TR/2001/REC-SVG-20010904/DTD/svg10.dtd">
<svg version="1.0" xmlns="http://www.w3.org/2000/svg"
 width="165.000000pt" height="109.000000pt" viewBox="0 0 165.000000 109.000000"
 preserveAspectRatio="xMidYMid meet">

<g transform="translate(0.000000,109.000000) scale(0.100000,-0.100000)"
fill="#000000" stroke="none">
<path d="M520 483 c0 -27 -3 -87 -6 -135 -8 -104 -1 -138 26 -138 18 0 20 7
20 71 0 57 4 75 18 85 13 11 14 16 4 22 -13 9 -19 82 -9 120 5 19 2 22 -24 22
-28 0 -29 -2 -29 -47z"/>
<path d="M1079 478 c-1 -24 -1 -65 0 -93 1 -27 2 -77 2 -109 l-1 -60 24 23
c34 32 42 75 21 107 -10 15 -22 23 -31 20 -16 -6 -19 10 -4 19 6 4 8 11 5 16
-3 5 1 6 9 3 11 -4 16 0 17 12 3 54 -12 104 -31 104 -6 0 -11 -19 -11 -42z"/>
</g>
</svg>
